TITLE ""
FILE "LR_black_phrase_C04.mp3" MP3
  TRACK 01 AUDIO
    TITLE "LR_black_phrase_C04_001"
    INDEX 01 00:00:00
  TRACK 02 AUDIO
    TITLE "LR_black_phrase_C04_002"
    INDEX 01 00:00:14
  TRACK 03 AUDIO
    TITLE "LR_black_phrase_C04_003"
    INDEX 01 00:01:35
  TRACK 04 AUDIO
    TITLE "LR_black_phrase_C04_004"
    INDEX 01 00:01:70
  TRACK 05 AUDIO
    TITLE "LR_black_phrase_C04_005"
    INDEX 01 00:04:04
  TRACK 06 AUDIO
    TITLE "LR_black_phrase_C04_006"
    INDEX 01 00:05:04
  TRACK 07 AUDIO
    TITLE "LR_black_phrase_C04_007"
    INDEX 01 00:06:54
  TRACK 08 AUDIO
    TITLE "LR_black_phrase_C04_008"
    INDEX 01 00:07:22
  TRACK 09 AUDIO
    TITLE "LR_black_phrase_C04_009"
    INDEX 01 00:09:27
  TRACK 10 AUDIO
    TITLE "LR_black_phrase_C04_010"
    INDEX 01 00:09:58
  TRACK 11 AUDIO
    TITLE "LR_black_phrase_C04_011"
    INDEX 01 00:11:65
  TRACK 12 AUDIO
    TITLE "LR_black_phrase_C04_012"
    INDEX 01 00:12:72
  TRACK 13 AUDIO
    TITLE "LR_black_phrase_C04_013"
    INDEX 01 00:14:28
  TRACK 14 AUDIO
    TITLE "LR_black_phrase_C04_014"
    INDEX 01 00:14:67
  TRACK 15 AUDIO
    TITLE "LR_black_phrase_C04_015"
    INDEX 01 00:16:13
  TRACK 16 AUDIO
    TITLE "LR_black_phrase_C04_016"
    INDEX 01 00:17:13
  TRACK 17 AUDIO
    TITLE "LR_black_phrase_C04_017"
    INDEX 01 00:18:73
  TRACK 18 AUDIO
    TITLE "LR_black_phrase_C04_018"
    INDEX 01 00:19:37
  TRACK 19 AUDIO
    TITLE "LR_black_phrase_C04_019"
    INDEX 01 00:21:40
  TRACK 20 AUDIO
    TITLE "LR_black_phrase_C04_020"
    INDEX 01 00:21:67
  TRACK 21 AUDIO
    TITLE "LR_black_phrase_C04_021"
    INDEX 01 00:23:70
  TRACK 22 AUDIO
    TITLE "LR_black_phrase_C04_022"
    INDEX 01 00:24:68
  TRACK 23 AUDIO
    TITLE "LR_black_phrase_C04_023"
    INDEX 01 00:26:06
  TRACK 24 AUDIO
    TITLE "LR_black_phrase_C04_024"
    INDEX 01 00:26:39
  TRACK 25 AUDIO
    TITLE "LR_black_phrase_C04_025"
    INDEX 01 00:27:58
  TRACK 26 AUDIO
    TITLE "LR_black_phrase_C04_026"
    INDEX 01 00:28:54
  TRACK 27 AUDIO
    TITLE "LR_black_phrase_C04_027"
    INDEX 01 00:31:15
  TRACK 28 AUDIO
    TITLE "LR_black_phrase_C04_028"
    INDEX 01 00:31:50
  TRACK 29 AUDIO
    TITLE "LR_black_phrase_C04_029"
    INDEX 01 00:33:47
  TRACK 30 AUDIO
    TITLE "LR_black_phrase_C04_030"
    INDEX 01 00:33:67
  TRACK 31 AUDIO
    TITLE "LR_black_phrase_C04_031"
    INDEX 01 00:35:65
  TRACK 32 AUDIO
    TITLE "LR_black_phrase_C04_032"
    INDEX 01 00:36:59
  TRACK 33 AUDIO
    TITLE "LR_black_phrase_C04_033"
    INDEX 01 00:38:15
  TRACK 34 AUDIO
    TITLE "LR_black_phrase_C04_034"
    INDEX 01 00:38:52
  TRACK 35 AUDIO
    TITLE "LR_black_phrase_C04_035"
    INDEX 01 00:42:03
  TRACK 36 AUDIO
    TITLE "LR_black_phrase_C04_036"
    INDEX 01 00:43:02
  TRACK 37 AUDIO
    TITLE "LR_black_phrase_C04_037"
    INDEX 01 00:45:50
  TRACK 38 AUDIO
    TITLE "LR_black_phrase_C04_038"
    INDEX 01 00:46:18
  TRACK 39 AUDIO
    TITLE "LR_black_phrase_C04_039"
    INDEX 01 00:48:21
  TRACK 40 AUDIO
    TITLE "LR_black_phrase_C04_040"
    INDEX 01 00:48:47
  TRACK 41 AUDIO
    TITLE "LR_black_phrase_C04_041"
    INDEX 01 00:50:51
  TRACK 42 AUDIO
    TITLE "LR_black_phrase_C04_042"
    INDEX 01 00:51:49
  TRACK 43 AUDIO
    TITLE "LR_black_phrase_C04_043"
    INDEX 01 00:52:68
  TRACK 44 AUDIO
    TITLE "LR_black_phrase_C04_044"
    INDEX 01 00:53:32
  TRACK 45 AUDIO
    TITLE "LR_black_phrase_C04_045"
    INDEX 01 00:55:39
  TRACK 46 AUDIO
    TITLE "LR_black_phrase_C04_046"
    INDEX 01 00:56:32
  TRACK 47 AUDIO
    TITLE "LR_black_phrase_C04_047"
    INDEX 01 00:59:05
  TRACK 48 AUDIO
    TITLE "LR_black_phrase_C04_048"
    INDEX 01 00:59:44
  TRACK 49 AUDIO
    TITLE "LR_black_phrase_C04_049"
    INDEX 01 01:01:53
  TRACK 50 AUDIO
    TITLE "LR_black_phrase_C04_050"
    INDEX 01 01:02:09
  TRACK 51 AUDIO
    TITLE "LR_black_phrase_C04_051"
    INDEX 01 01:04:16
  TRACK 52 AUDIO
    TITLE "LR_black_phrase_C04_052"
    INDEX 01 01:05:14
  TRACK 53 AUDIO
    TITLE "LR_black_phrase_C04_053"
    INDEX 01 01:06:27
  TRACK 54 AUDIO
    TITLE "LR_black_phrase_C04_054"
    INDEX 01 01:06:68
  TRACK 55 AUDIO
    TITLE "LR_black_phrase_C04_055"
    INDEX 01 01:08:57
  TRACK 56 AUDIO
    TITLE "LR_black_phrase_C04_056"
    INDEX 01 01:09:58
  TRACK 57 AUDIO
    TITLE "LR_black_phrase_C04_057"
    INDEX 01 01:11:59
  TRACK 58 AUDIO
    TITLE "LR_black_phrase_C04_058"
    INDEX 01 01:12:24
  TRACK 59 AUDIO
    TITLE "LR_black_phrase_C04_059"
    INDEX 01 01:14:20
  TRACK 60 AUDIO
    TITLE "LR_black_phrase_C04_060"
    INDEX 01 01:14:52
  TRACK 61 AUDIO
    TITLE "LR_black_phrase_C04_061"
    INDEX 01 01:16:49
  TRACK 62 AUDIO
    TITLE "LR_black_phrase_C04_062"
    INDEX 01 01:17:50
  TRACK 63 AUDIO
    TITLE "LR_black_phrase_C04_063"
    INDEX 01 01:19:04
  TRACK 64 AUDIO
    TITLE "LR_black_phrase_C04_064"
    INDEX 01 01:19:39
  TRACK 65 AUDIO
    TITLE "LR_black_phrase_C04_065"
    INDEX 01 01:20:58
  TRACK 66 AUDIO
    TITLE "LR_black_phrase_C04_066"
    INDEX 01 01:21:60
  TRACK 67 AUDIO
    TITLE "LR_black_phrase_C04_067"
    INDEX 01 01:23:25
  TRACK 68 AUDIO
    TITLE "LR_black_phrase_C04_068"
    INDEX 01 01:23:61
  TRACK 69 AUDIO
    TITLE "LR_black_phrase_C04_069"
    INDEX 01 01:25:63
  TRACK 70 AUDIO
    TITLE "LR_black_phrase_C04_070"
    INDEX 01 01:26:10
  TRACK 71 AUDIO
    TITLE "LR_black_phrase_C04_071"
    INDEX 01 01:28:13
  TRACK 72 AUDIO
    TITLE "LR_black_phrase_C04_072"
    INDEX 01 01:29:12
  TRACK 73 AUDIO
    TITLE "LR_black_phrase_C04_073"
    INDEX 01 01:30:57
  TRACK 74 AUDIO
    TITLE "LR_black_phrase_C04_074"
    INDEX 01 01:31:17
  TRACK 75 AUDIO
    TITLE "LR_black_phrase_C04_075"
    INDEX 01 01:33:08
  TRACK 76 AUDIO
    TITLE "LR_black_phrase_C04_076"
    INDEX 01 01:34:07
  TRACK 77 AUDIO
    TITLE "LR_black_phrase_C04_077"
    INDEX 01 01:35:50
  TRACK 78 AUDIO
    TITLE "LR_black_phrase_C04_078"
    INDEX 01 01:36:10
  TRACK 79 AUDIO
    TITLE "LR_black_phrase_C04_079"
    INDEX 01 01:38:48
  TRACK 80 AUDIO
    TITLE "LR_black_phrase_C04_080"
    INDEX 01 01:38:68
  TRACK 81 AUDIO
    TITLE "LR_black_phrase_C04_081"
    INDEX 01 01:41:31
  TRACK 82 AUDIO
    TITLE "LR_black_phrase_C04_082"
    INDEX 01 01:42:31
  TRACK 83 AUDIO
    TITLE "LR_black_phrase_C04_083"
    INDEX 01 01:43:40
  TRACK 84 AUDIO
    TITLE "LR_black_phrase_C04_084"
    INDEX 01 01:44:06
  TRACK 85 AUDIO
    TITLE "LR_black_phrase_C04_085"
    INDEX 01 01:45:17
  TRACK 86 AUDIO
    TITLE "LR_black_phrase_C04_086"
    INDEX 01 01:46:17
  TRACK 87 AUDIO
    TITLE "LR_black_phrase_C04_087"
    INDEX 01 01:47:57
  TRACK 88 AUDIO
    TITLE "LR_black_phrase_C04_088"
    INDEX 01 01:48:21
  TRACK 89 AUDIO
    TITLE "LR_black_phrase_C04_089"
    INDEX 01 01:50:01
  TRACK 90 AUDIO
    TITLE "LR_black_phrase_C04_090"
    INDEX 01 01:50:32
  TRACK 91 AUDIO
    TITLE "LR_black_phrase_C04_091"
    INDEX 01 01:52:11
  TRACK 92 AUDIO
    TITLE "LR_black_phrase_C04_092"
    INDEX 01 01:53:17
  TRACK 93 AUDIO
    TITLE "LR_black_phrase_C04_093"
    INDEX 01 01:54:47
  TRACK 94 AUDIO
    TITLE "LR_black_phrase_C04_094"
    INDEX 01 01:55:12
  TRACK 95 AUDIO
    TITLE "LR_black_phrase_C04_095"
    INDEX 01 01:57:44
  TRACK 96 AUDIO
    TITLE "LR_black_phrase_C04_096"
    INDEX 01 01:58:43
  TRACK 97 AUDIO
    TITLE "LR_black_phrase_C04_097"
    INDEX 01 02:00:19
  TRACK 98 AUDIO
    TITLE "LR_black_phrase_C04_098"
    INDEX 01 02:00:54
  TRACK 99 AUDIO
    TITLE "LR_black_phrase_C04_099"
    INDEX 01 02:02:66
  TRACK 100 AUDIO
    TITLE "LR_black_phrase_C04_100"
    INDEX 01 02:03:23
  TRACK 101 AUDIO
    TITLE "LR_black_phrase_C04_101"
    INDEX 01 02:05:35
  TRACK 102 AUDIO
    TITLE "LR_black_phrase_C04_102"
    INDEX 01 02:06:35
  TRACK 103 AUDIO
    TITLE "LR_black_phrase_C04_103"
    INDEX 01 02:07:50
  TRACK 104 AUDIO
    TITLE "LR_black_phrase_C04_104"
    INDEX 01 02:08:06
  TRACK 105 AUDIO
    TITLE "LR_black_phrase_C04_105"
    INDEX 01 02:09:27
  TRACK 106 AUDIO
    TITLE "LR_black_phrase_C04_106"
    INDEX 01 02:10:25
  TRACK 107 AUDIO
    TITLE "LR_black_phrase_C04_107"
    INDEX 01 02:12:06
  TRACK 108 AUDIO
    TITLE "LR_black_phrase_C04_108"
    INDEX 01 02:12:39
  TRACK 109 AUDIO
    TITLE "LR_black_phrase_C04_109"
    INDEX 01 02:14:38
  TRACK 110 AUDIO
    TITLE "LR_black_phrase_C04_110"
    INDEX 01 02:14:54
  TRACK 111 AUDIO
    TITLE "LR_black_phrase_C04_111"
    INDEX 01 02:16:53
  TRACK 112 AUDIO
    TITLE "LR_black_phrase_C04_112"
    INDEX 01 02:17:45
  TRACK 113 AUDIO
    TITLE "LR_black_phrase_C04_113"
    INDEX 01 02:18:64
  TRACK 114 AUDIO
    TITLE "LR_black_phrase_C04_114"
    INDEX 01 02:19:24
  TRACK 115 AUDIO
    TITLE "LR_black_phrase_C04_115"
    INDEX 01 02:21:60
  TRACK 116 AUDIO
    TITLE "LR_black_phrase_C04_116"
    INDEX 01 02:22:59
  TRACK 117 AUDIO
    TITLE "LR_black_phrase_C04_117"
    INDEX 01 02:24:41
  TRACK 118 AUDIO
    TITLE "LR_black_phrase_C04_118"
    INDEX 01 02:24:74
  TRACK 119 AUDIO
    TITLE "LR_black_phrase_C04_119"
    INDEX 01 02:27:00
  TRACK 120 AUDIO
    TITLE "LR_black_phrase_C04_120"
    INDEX 01 02:27:17
  TRACK 121 AUDIO
    TITLE "LR_black_phrase_C04_121"
    INDEX 01 02:29:16
  TRACK 122 AUDIO
    TITLE "LR_black_phrase_C04_122"
    INDEX 01 02:30:14
  TRACK 123 AUDIO
    TITLE "LR_black_phrase_C04_123"
    INDEX 01 02:31:43
  TRACK 124 AUDIO
    TITLE "LR_black_phrase_C04_124"
    INDEX 01 02:32:05
  TRACK 125 AUDIO
    TITLE "LR_black_phrase_C04_125"
    INDEX 01 02:33:61
  TRACK 126 AUDIO
    TITLE "LR_black_phrase_C04_126"
    INDEX 01 02:34:61
  TRACK 127 AUDIO
    TITLE "LR_black_phrase_C04_127"
    INDEX 01 02:38:02
  TRACK 128 AUDIO
    TITLE "LR_black_phrase_C04_128"
    INDEX 01 02:38:45
  TRACK 129 AUDIO
    TITLE "LR_black_phrase_C04_129"
    INDEX 01 02:40:71
  TRACK 130 AUDIO
    TITLE "LR_black_phrase_C04_130"
    INDEX 01 02:41:27
  TRACK 131 AUDIO
    TITLE "LR_black_phrase_C04_131"
    INDEX 01 02:43:56
  TRACK 132 AUDIO
    TITLE "LR_black_phrase_C04_132"
    INDEX 01 02:44:63
  TRACK 133 AUDIO
    TITLE "LR_black_phrase_C04_133"
    INDEX 01 02:46:15
  TRACK 134 AUDIO
    TITLE "LR_black_phrase_C04_134"
    INDEX 01 02:46:54
  TRACK 135 AUDIO
    TITLE "LR_black_phrase_C04_135"
    INDEX 01 02:49:15
  TRACK 136 AUDIO
    TITLE "LR_black_phrase_C04_136"
    INDEX 01 02:50:13
  TRACK 137 AUDIO
    TITLE "LR_black_phrase_C04_137"
    INDEX 01 02:52:27
  TRACK 138 AUDIO
    TITLE "LR_black_phrase_C04_138"
    INDEX 01 02:52:66
  TRACK 139 AUDIO
    TITLE "LR_black_phrase_C04_139"
    INDEX 01 02:54:73
  TRACK 140 AUDIO
    TITLE "LR_black_phrase_C04_140"
    INDEX 01 02:55:28
  TRACK 141 AUDIO
    TITLE "LR_black_phrase_C04_141"
    INDEX 01 02:57:34
  TRACK 142 AUDIO
    TITLE "LR_black_phrase_C04_142"
    INDEX 01 02:58:32
  TRACK 143 AUDIO
    TITLE "LR_black_phrase_C04_143"
    INDEX 01 02:59:49
  TRACK 144 AUDIO
    TITLE "LR_black_phrase_C04_144"
    INDEX 01 03:00:09
  TRACK 145 AUDIO
    TITLE "LR_black_phrase_C04_145"
    INDEX 01 03:02:43
  TRACK 146 AUDIO
    TITLE "LR_black_phrase_C04_146"
    INDEX 01 03:03:45
  TRACK 147 AUDIO
    TITLE "LR_black_phrase_C04_147"
    INDEX 01 03:06:33
  TRACK 148 AUDIO
    TITLE "LR_black_phrase_C04_148"
    INDEX 01 03:06:66
  TRACK 149 AUDIO
    TITLE "LR_black_phrase_C04_149"
    INDEX 01 03:09:26
  TRACK 150 AUDIO
    TITLE "LR_black_phrase_C04_150"
    INDEX 01 03:09:51
  TRACK 151 AUDIO
    TITLE "LR_black_phrase_C04_151"
    INDEX 01 03:12:08
  TRACK 152 AUDIO
    TITLE "LR_black_phrase_C04_152"
    INDEX 01 03:13:12
  TRACK 153 AUDIO
    TITLE "LR_black_phrase_C04_153"
    INDEX 01 03:14:21
  TRACK 154 AUDIO
    TITLE "LR_black_phrase_C04_154"
    INDEX 01 03:14:54
  TRACK 155 AUDIO
    TITLE "LR_black_phrase_C04_155"
    INDEX 01 03:16:12
  TRACK 156 AUDIO
    TITLE "LR_black_phrase_C04_156"
    INDEX 01 03:17:11
  TRACK 157 AUDIO
    TITLE "LR_black_phrase_C04_157"
    INDEX 01 03:19:32
  TRACK 158 AUDIO
    TITLE "LR_black_phrase_C04_158"
    INDEX 01 03:19:67
  TRACK 159 AUDIO
    TITLE "LR_black_phrase_C04_159"
    INDEX 01 03:21:70
  TRACK 160 AUDIO
    TITLE "LR_black_phrase_C04_160"
    INDEX 01 03:22:20
  TRACK 161 AUDIO
    TITLE "LR_black_phrase_C04_161"
    INDEX 01 03:24:21
  TRACK 162 AUDIO
    TITLE "LR_black_phrase_C04_162"
    INDEX 01 03:25:25
  TRACK 163 AUDIO
    TITLE "LR_black_phrase_C04_163"
    INDEX 01 03:26:48
  TRACK 164 AUDIO
    TITLE "LR_black_phrase_C04_164"
    INDEX 01 03:27:12
  TRACK 165 AUDIO
    TITLE "LR_black_phrase_C04_165"
    INDEX 01 03:29:48
  TRACK 166 AUDIO
    TITLE "LR_black_phrase_C04_166"
    INDEX 01 03:30:47
  TRACK 167 AUDIO
    TITLE "LR_black_phrase_C04_167"
    INDEX 01 03:32:48
  TRACK 168 AUDIO
    TITLE "LR_black_phrase_C04_168"
    INDEX 01 03:33:12
  TRACK 169 AUDIO
    TITLE "LR_black_phrase_C04_169"
    INDEX 01 03:35:52
  TRACK 170 AUDIO
    TITLE "LR_black_phrase_C04_170"
    INDEX 01 03:36:07
  TRACK 171 AUDIO
    TITLE "LR_black_phrase_C04_171"
    INDEX 01 03:38:47
  TRACK 172 AUDIO
    TITLE "LR_black_phrase_C04_172"
    INDEX 01 03:39:52
  TRACK 173 AUDIO
    TITLE "LR_black_phrase_C04_173"
    INDEX 01 03:40:67
  TRACK 174 AUDIO
    TITLE "LR_black_phrase_C04_174"
    INDEX 01 03:41:33
  TRACK 175 AUDIO
    TITLE "LR_black_phrase_C04_175"
    INDEX 01 03:44:20
  TRACK 176 AUDIO
    TITLE "LR_black_phrase_C04_176"
    INDEX 01 03:45:20
  TRACK 177 AUDIO
    TITLE "LR_black_phrase_C04_177"
    INDEX 01 03:47:09
  TRACK 178 AUDIO
    TITLE "LR_black_phrase_C04_178"
    INDEX 01 03:47:50
  TRACK 179 AUDIO
    TITLE "LR_black_phrase_C04_179"
    INDEX 01 03:49:41
  TRACK 180 AUDIO
    TITLE "LR_black_phrase_C04_180"
    INDEX 01 03:49:70
  TRACK 181 AUDIO
    TITLE "LR_black_phrase_C04_181"
    INDEX 01 03:51:61
  TRACK 182 AUDIO
    TITLE "LR_black_phrase_C04_182"
    INDEX 01 03:52:61
  TRACK 183 AUDIO
    TITLE "LR_black_phrase_C04_183"
    INDEX 01 03:53:68
  TRACK 184 AUDIO
    TITLE "LR_black_phrase_C04_184"
    INDEX 01 03:54:26
  TRACK 185 AUDIO
    TITLE "LR_black_phrase_C04_185"
    INDEX 01 03:57:07
  TRACK 186 AUDIO
    TITLE "LR_black_phrase_C04_186"
    INDEX 01 03:58:10
  TRACK 187 AUDIO
    TITLE "LR_black_phrase_C04_187"
    INDEX 01 04:00:52
  TRACK 188 AUDIO
    TITLE "LR_black_phrase_C04_188"
    INDEX 01 04:01:15
  TRACK 189 AUDIO
    TITLE "LR_black_phrase_C04_189"
    INDEX 01 04:03:43
  TRACK 190 AUDIO
    TITLE "LR_black_phrase_C04_190"
    INDEX 01 04:03:64
  TRACK 191 AUDIO
    TITLE "LR_black_phrase_C04_191"
    INDEX 01 04:06:20
  TRACK 192 AUDIO
    TITLE "LR_black_phrase_C04_192"
    INDEX 01 04:07:17
  TRACK 193 AUDIO
    TITLE "LR_black_phrase_C04_193"
    INDEX 01 04:08:15
  TRACK 194 AUDIO
    TITLE "LR_black_phrase_C04_194"
    INDEX 01 04:08:50
  TRACK 195 AUDIO
    TITLE "LR_black_phrase_C04_195"
    INDEX 01 04:11:40
  TRACK 196 AUDIO
    TITLE "LR_black_phrase_C04_196"
    INDEX 01 04:12:40
  TRACK 197 AUDIO
    TITLE "LR_black_phrase_C04_197"
    INDEX 01 04:14:68
  TRACK 198 AUDIO
    TITLE "LR_black_phrase_C04_198"
    INDEX 01 04:15:27
  TRACK 199 AUDIO
    TITLE "LR_black_phrase_C04_199"
    INDEX 01 04:17:51
  TRACK 200 AUDIO
    TITLE "LR_black_phrase_C04_200"
    INDEX 01 04:17:69
  TRACK 201 AUDIO
    TITLE "LR_black_phrase_C04_201"
    INDEX 01 04:20:18
